<svg xmlns="http://www.w3.org/2000/svg" xmlns:xlink="http://www.w3.org/1999/xlink" viewBox="0 0 1920 977.9"><defs><path id="a" d="M0 0h1920v978H0z"/></defs><clipPath id="b"><use xlink:href="#a" overflow="visible"/></clipPath><g clip-path="url(#b)"><linearGradient id="c" gradientUnits="userSpaceOnUse" x1="1199.384" y1="69.78" x2="1640.428" y2="981.871"><stop offset="0" stop-color="#04e5d4"/><stop offset="1" stop-color="#37d9ef"/></linearGradient><path opacity=".23" fill="url(#c)" d="M2370 982H445L344 348S606 82 916 82s458 216 690 216S2174 8 2365 8"/><linearGradient id="d" gradientUnits="userSpaceOnUse" x1="295.384" y1="69.78" x2="736.428" y2="981.871" gradientTransform="matrix(-1 0 0 1 1466 0)"><stop offset="0" stop-color="#04e5d4"/><stop offset="1" stop-color="#37d9ef"/></linearGradient><path opacity=".28" fill="url(#d)" d="M0 982h1925l101-634S1764 82 1454 82 996 298 764 298 196 8 5 8"/><linearGradient id="e" gradientUnits="userSpaceOnUse" x1="754.384" y1="69.78" x2="1195.428" y2="981.871"><stop offset="0" stop-color="#04e5d4"/><stop offset="1" stop-color="#37d9ef"/></linearGradient><path fill="url(#e)" d="M1925 982H0l-101-634S161 82 471 82s458 216 690 216S1729 8 1920 8"/></g></svg>