<?xml version="1.0" encoding="utf-8"?>
<!-- Generator: Adobe Illustrator 17.1.0, SVG Export Plug-In . SVG Version: 6.00 Build 0)  -->
<!DOCTYPE svg PUBLIC "-//W3C//DTD SVG 1.1//EN" "http://www.w3.org/Graphics/SVG/1.1/DTD/svg11.dtd">
<svg version="1.1" id="Layer_1" xmlns="http://www.w3.org/2000/svg" xmlns:xlink="http://www.w3.org/1999/xlink" x="0px" y="0px"
	 viewBox="0 0 516.9 111.3" enable-background="new 0 0 516.9 111.3" xml:space="preserve">
<g>
	<path fill="#FFFFFF" d="M84,0c2.6-0.1,5.4,0,8.2,0.4c2.9,0.4,5.5,1.2,8,2.2c2.5,1.1,4.8,2.5,6.8,4.3c2,1.8,3.6,3.9,4.6,6.4
		c1.5,3.6,2.1,7,1.7,10.4c-0.4,3.3-1.6,6.3-3.5,8.8c-1.3,1.8-3,3.1-5.2,3.9c-2.1,0.8-4.4,1.3-6.8,1.5c-2.4,0.2-4.8,0-7.2-0.5
		c-2.4-0.5-4.4-1.3-6.1-2.4c-2.7-1.8-4.5-3.7-5.2-5.7c-0.7-2,0.3-4.1,3-6.1c0.8-0.5,1.7-1.1,2.5-1.9c0.8-0.8,1.5-1.6,2.1-2.5
		c0.6-0.9,1-1.8,1.1-2.8c0.1-1-0.2-2-0.9-3c-0.7-1.2-2.1-1.7-4.3-1.5C81,11.8,79,12.6,77,14c-1.9,1.4-3.3,3.4-4.2,6
		c-0.9,2.6-0.4,5.7,1.5,9.4c1.5,3,3.6,6.1,6.3,9.3c2.6,3.2,5.2,6.6,7.9,10.2c2.6,3.6,4.9,7.3,6.9,11.1c2,3.8,3,7.8,3.1,12
		c0.2,5.7-1.2,10.9-4.2,15.6c-3,4.7-7.1,8.7-12.2,12c-5.1,3.3-10.8,5.8-17.3,7.7c-6.5,1.8-13.1,2.8-19.9,2.8
		c-6.8,0-13.2-0.7-19.3-2.1c-6.1-1.4-11.3-3.9-15.7-7.5c-4.3-3.5-7.1-7.4-8.5-12c-1.4-4.5-1.7-9.1-0.9-13.6c0.8-4.5,2.4-8.9,4.9-13
		s5.5-7.5,9.1-10.1c2.4-1.7,4.9-2.8,7.5-3.3c2.6-0.5,5.2-0.6,7.9-0.1c2.6,0.5,5.1,1.4,7.4,2.9c2.3,1.4,4.3,3.3,6,5.5
		c1.7,2.3,2.9,4.7,3.6,7.3c0.7,2.6,0.8,5.1,0.3,7.3c-0.5,2.3-1.8,4.2-3.9,5.9c-2.1,1.7-5.1,2.7-9,3.2c-5.2,0.6-8.6,1.8-9.9,3.5
		c-1.4,1.7-1.4,3.4-0.2,5c1.3,1.6,3.5,3,6.8,4c3.3,1.1,6.9,1.3,11,0.5c2.4-0.4,4.7-1,7.1-2c2.3-1,4.3-2.2,6-3.8
		c1.7-1.6,3-3.5,3.8-5.6c0.9-2.1,1.2-4.6,0.8-7.3c-0.4-2.5-1.2-5.1-2.5-7.9c-1.3-2.7-2.7-5.5-4.3-8.2c-1.6-2.7-3.1-5.5-4.6-8.1
		c-1.5-2.7-2.6-5.3-3.3-7.8c-2.1-6.9-2.4-13-0.6-18.2c1.7-5.2,4.6-9.7,8.7-13.2C57,7.7,61.8,5,67.3,3.2C72.8,1.3,78.4,0.3,84,0z"/>
	<path fill="#FFFFFF" d="M146.8,79.6c0.1-0.5,0.2-1.2,0.2-2.1c0-0.9-0.4-1.1-1.3-0.6c-1.1,0.6-2.3,1.9-3.7,3.8
		c-1.4,2-2.8,4.2-4.2,6.7c-1.4,2.5-2.7,5-3.9,7.6c-1.2,2.6-2.1,4.6-2.7,6.2c-1.9,5.7-6.1,8.3-12.5,7.9c-3.3-0.4-6.2-2-8.5-4.8
		c-2.3-2.9-3.8-6.2-4.4-10c-0.4-2-0.3-4.8,0.1-8.2c0.4-3.5,1-7.2,1.9-11.4c0.8-4.1,1.8-8.3,3-12.7c1.2-4.4,2.4-8.5,3.8-12.4
		c1.3-3.9,2.6-7.5,3.9-10.7c1.3-3.2,2.5-5.7,3.6-7.3c1.7-2.7,3.7-4.9,6.1-6.6c2.4-1.7,5.2-2.6,8.6-2.7c3.1-0.1,5.5,0.2,7.3,1
		c1.8,0.8,3.1,1.9,3.8,3.3c0.8,1.4,1.1,3.1,1,5.1c-0.1,2-0.6,4-1.4,6.2c-1.7,4.6-3.4,9.7-5.3,15.2c-1.8,5.5-3.5,11.1-5.1,16.8
		c2.5-4.6,5.1-8.4,7.8-11.3c2.7-2.9,5.3-5.1,7.9-6.7c2.6-1.6,5-2.7,7.3-3.3c2.3-0.6,4.4-0.9,6.2-0.9c1.9,0,3.8,0.2,5.7,0.5
		c1.9,0.4,3.5,1,4.9,2.1c1.4,1,2.4,2.3,3,3.9c0.7,1.6,0.7,3.7,0.3,6.2c-0.2,1.6-0.7,3.5-1.3,5.9c-0.7,2.4-1.3,4.9-2.1,7.5
		c-0.7,2.6-1.4,5.3-2,8c-0.6,2.7-1,5-1.1,7.1c0.2,1.7,0.9,2.7,2.1,3c1.1,0.4,2.4,0.2,3.8-0.4c3.7-1.3,6.7-3.7,9-7.1
		c2.3-3.4,4.4-6.8,6.3-10.1c1.2-2,2.4-3.4,3.7-4c1.3-0.7,3.1-1,5.5-1c1.5,0,2.6,0.2,3.1,0.7c0.5,0.5,0.8,1.1,0.8,2
		c0,0.8-0.2,1.8-0.6,2.9c-0.4,1.1-0.9,2.1-1.3,3.2c-1.6,3.3-3.6,6.8-6.1,10.3c-2.5,3.5-5.1,6.6-7.9,9.2
		c-6.9,6.4-15.1,10.3-24.5,11.4c-2.9,0.2-5.5,0.2-8-0.1c-2.4-0.3-4.6-1-6.4-2.2c-1.8-1.2-3.4-2.8-4.6-4.8c-1.3-2-2.1-4.6-2.6-7.7
		c-0.2-2-0.3-4.3-0.2-6.7C146,85,146.3,82.4,146.8,79.6z"/>
	<path fill="#FFFFFF" d="M291.1,69.2c1.5,0,2.6,0.2,3.2,0.7c0.6,0.5,0.9,1.1,0.9,2c0,0.8-0.2,1.8-0.6,2.9c-0.4,1.1-0.9,2.1-1.3,3.2
		c-1.6,3.2-3.6,6.6-6.3,10.3c-2.6,3.6-5.2,6.7-7.9,9.2c-6.8,6.4-14.9,10.3-24.3,11.4c-5.4,0.5-9.9-0.2-13.7-2
		c-3.8-1.8-6.3-5.5-7.6-11.3c-2.4,3.8-5.3,6.9-8.7,9.3c-3.4,2.4-7.5,3.8-12.2,4.1c-4.6,0.4-8.4-0.3-11.3-2c-2.9-1.7-5-4-6.3-6.9
		c-1.4-2.9-2.1-6.3-2.1-10.3c-0.1-3.9,0.4-8,1.3-12.3c0.7-2.9,1.8-5.7,3.4-8.7c1.5-2.9,3.5-5.7,5.7-8.2c2.3-2.6,4.8-4.9,7.5-7.1
		c2.7-2.1,5.7-3.9,8.8-5.2c2.1-1,4.4-1.6,6.9-2c2.4-0.4,4.9-0.4,7.3-0.3c2.4,0.2,4.8,0.7,7.1,1.6c2.3,0.9,4.3,2.1,6.1,3.7
		c2.9-2.3,6-3.4,9.5-3.4c4.4-0.1,7.5,1,9.3,3.5c1.8,2.4,2.3,5.3,1.6,8.7c-0.2,1.6-0.7,3.5-1.3,5.9c-0.7,2.4-1.3,4.9-2.1,7.5
		c-0.7,2.6-1.4,5.3-2,8c-0.6,2.7-1,5-1.1,7.1c0.2,1.7,0.9,2.7,2.1,3c1.1,0.4,2.4,0.2,3.8-0.4c1.9-0.6,3.6-1.5,5-2.9
		c1.4-1.3,2.7-2.7,3.9-4.1c1.3-1.7,2.4-3.4,3.4-5.1c1-1.7,1.9-3.4,2.9-5.1c1.2-2,2.4-3.4,3.7-4C286.9,69.6,288.7,69.2,291.1,69.2z
		 M236.9,68.2c1.1-3.5,2.4-6.6,3.9-9.3c-2.1-0.6-4.6-0.1-7.2,1.4c-2.7,1.6-5.5,5.1-8.5,10.7c-1.7,3.2-3,6.4-3.9,9.7
		c-1,3.2-1.3,6-1.1,8.2c0.2,2.5,1,3.6,2.1,3.3c1.2-0.3,2.7-1.5,4.4-3.8c1.7-2.2,3.5-5.1,5.4-8.7C233.8,76.2,235.5,72.3,236.9,68.2z"
		/>
	<path fill="#FFFFFF" d="M359.9,69.2c1.5,0,2.6,0.2,3.2,0.6c0.6,0.4,0.9,1,1,1.9c0.1,0.8-0.1,1.8-0.5,2.8c-0.4,1-0.9,2.1-1.3,3.1
		c-2.9,6-5.5,11.1-8,15.6c-3.1,5.6-7.1,10-12,13.1c-2.6,1.7-6,2.9-10.1,3.6c-4.1,0.7-8.2,0.8-12.2,0.4c-4.1-0.5-7.7-1.6-10.8-3.3
		c-3.2-1.7-5.1-4.2-5.8-7.4c-0.6-2.6-0.4-5.5,0.5-8.5c1-3,1.9-6,2.8-8.8c0.9-2.8,1.5-5.4,1.7-7.7c0.2-2.3-0.6-4.1-2.5-5.5
		c-1-0.6-2-1.1-3-1.6c-1.1-0.5-2.3-0.9-3.6-1.3c-1.4,3.1-2.9,6.1-4.5,8.9c-1.6,2.8-2.6,4.9-3.2,6.2c-0.5,0.8-1.4,1.4-2.7,1.6
		c-1.3,0.2-2.7,0.2-4,0c-1.4-0.2-2.6-0.7-3.7-1.4c-1.1-0.7-1.6-1.6-1.6-2.7l2.1-4.3c0.6-1.3,1.3-2.7,2-4.1c0.7-1.4,1.4-2.8,2-4.1
		c0.6-1.1,1-2,1.3-2.9c0.3-0.8,0.5-1.4,0.6-1.6c-3.5-2.4-5.4-4.9-5.9-7.5c-0.5-2.6-0.1-5.1,1.1-7.5c2.3-5,5.6-8.3,10-10
		c2.3-0.8,4.6-1.2,6.9-1.1c2.3,0.1,4.2,0.7,5.6,1.8c1.4,1.1,2.3,2.7,2.5,4.8c0.2,2.1-0.5,4.8-2.3,8l16.1,4.3
		c7.4,1.8,12.2,4.8,14.5,8.9c2.3,4.2,2.3,9.6,0.2,16.3c-1,2.6-1.8,4.7-2.4,6.2c-0.7,1.5-1.2,3-1.5,4.4c-0.2,1.1,0.1,1.7,1,1.9
		c0.9,0.2,1.8,0.2,2.8-0.1c1.9-0.5,3.6-1.4,5.1-2.7c1.5-1.3,2.8-2.9,3.9-4.6c1.1-1.8,2.2-3.6,3.1-5.5c1-1.8,1.8-3.5,2.7-5.1
		c1.2-2,2.4-3.4,3.7-4C355.7,69.6,357.6,69.2,359.9,69.2z"/>
	<path fill="#FFFFFF" d="M364.6,31.5c1.7-2.7,3.7-4.9,6.1-6.6c2.4-1.7,5.2-2.6,8.6-2.7c3.1-0.1,5.5,0.2,7.3,1
		c1.8,0.8,3.1,1.9,3.8,3.3c0.8,1.4,1.1,3.1,1,5.1c-0.1,2-0.6,4-1.4,6.2c-1.9,5-3.7,10.1-5.3,15.4c-1.6,5.2-3.3,11.3-5.1,18.1
		c2.5-5.6,5.1-10.1,7.9-13.4c2.7-3.3,5.4-5.9,7.9-7.7c2.5-1.8,4.9-3,7.1-3.5c2.2-0.5,4-0.8,5.5-0.8c3.9,0,7.2,1,9.7,3
		c2.5,2,4.2,4.4,5.2,7.2c0.8,2.7,1.1,5.2,0.7,7.2c-0.4,2.1-1.1,4-2.2,5.7c-1.1,1.7-2.5,3.4-4.2,4.9c-1.7,1.6-3.4,3-5.2,4.5
		c-0.5,0.4-0.7,0.7-0.5,0.9c0.2,3.2,1,5.8,2.1,7.9c1.2,2,2.7,3.1,4.5,3.2c2,0,3.8-1,5.4-3c1.5-2,2.8-3.7,3.8-5.3
		c1.9-2.9,3.5-5.5,4.6-7.9c1.2-2,2.4-3.4,3.7-4c1.3-0.7,3.1-1,5.5-1c1.5,0,2.6,0.2,3.2,0.7c0.6,0.5,0.9,1.1,0.9,2
		c0,0.8-0.2,1.8-0.6,2.9c-0.4,1.1-0.9,2.1-1.3,3.2c-1.7,3.6-3.8,7.3-6.3,11.2c-2.6,3.9-5.5,7.4-8.8,10.6c-3.3,3.2-6.9,5.7-10.7,7.6
		c-3.9,1.9-8,2.6-12.2,2.1c-2.7-0.4-5.3-1.3-7.8-3c-2.4-1.6-4.6-4-6.3-7.1c-3.6-5.8-3.9-10.9-1.1-15.2c1-1.3,2.6-3.2,4.9-5.5
		c2.3-2.4,4.5-4.7,6.5-7c1.7-1.9,2.6-3.5,2.8-4.8c0.2-1.3-0.1-2.2-0.8-2.7c-0.7-0.5-1.8-0.6-3.2-0.3c-1.4,0.3-2.9,1-4.5,2.1
		c-1.7,1.2-3.3,2.9-5,5.2c-1.7,2.3-3.2,4.6-4.6,7.2c-1.4,2.5-2.7,4.9-3.7,7.2c-1,2.3-1.6,3.9-1.9,5c-0.6,2.3-1.3,4.5-2.2,6.8
		c-0.9,2.3-2.1,4.3-3.5,6c-1.4,1.7-3.1,3.1-4.9,4.1c-1.9,1-4,1.3-6.5,1c-3.8-0.5-6.8-1.8-8.9-3.8c-2.1-2.1-3.5-4.6-4.4-7.4
		c-0.8-2.9-1.2-6-1.1-9.3c0.1-3.3,0.5-6.6,1.1-9.7c0.7-4.2,1.7-8.6,2.9-13.3c1.2-4.7,2.5-9.2,3.8-13.6c1.4-4.4,2.8-8.3,4.2-11.8
		C362.1,36,363.4,33.3,364.6,31.5z"/>
	<path fill="#FFFFFF" d="M512.8,69.2c1.5,0,2.6,0.2,3.2,0.7c0.6,0.5,0.9,1.1,0.9,2c0,0.8-0.2,1.8-0.7,2.9c-0.5,1.1-1,2.1-1.4,3.2
		c-0.2,0.6-0.5,1.2-0.9,1.9c-0.4,0.7-0.7,1.3-0.9,1.9c-1.6,2.7-3.4,5.8-5.5,9.1c-2.1,3.3-4.4,6.5-7,9.5c-2.6,3-5.4,5.5-8.4,7.6
		c-3,2.1-6.3,3.2-9.7,3.3c-1.6,0-3.1-0.1-4.7-0.4c-1.6-0.2-3.4-0.6-5.3-1.1c-2.3-0.5-4.4-1-6.5-1.7c-2.1-0.7-4.2-1.2-6.4-1.5
		c-2.2-0.4-4.5-0.4-6.9-0.3c-2.4,0.2-5,0.7-7.9,1.7c-1.9,0.6-3.8,1-5.7,1.3c-1.9,0.3-3.3-0.3-4.3-1.9c-1.4-2.5-1.5-4.7-0.3-6.6
		c1.3-1.9,2.8-3.6,4.7-5.2L467.6,73c-0.4,0.1-1.3-0.1-2.8-0.8c-1.5-0.7-3.2-1.3-5.2-1.9c-2-0.6-4.1-0.9-6.3-1
		c-2.2-0.1-4.2,0.6-6,2.1c-0.7,0.6-1.3,1.2-1.6,1.7c-0.4,0.5-0.8,1.2-1.3,2.1c-0.6,1.3-1.2,2.5-1.8,3.6c-0.6,1.1-1.1,1.9-1.4,2.5
		c-0.5,0.8-1.4,1.4-2.8,1.6c-1.4,0.2-2.8,0.2-4.4-0.2c-1.3-0.2-2.4-0.7-3.3-1.3c-0.9-0.7-1.3-1.5-1.3-2.6c0.6-1,1.1-2,1.6-3.2
		c0.5-1,1-2,1.5-3.2c0.5-1.2,1.1-2.4,1.7-3.6c1.1-2.5,2.3-5,3.6-7.4c1.3-2.4,2.8-4.6,4.4-6.6c1.6-2,3.4-3.5,5.3-4.6
		c1.9-1.1,4-1.6,6.3-1.5c3.7,0.2,7.3,0.6,10.9,1.2c3.6,0.5,6.9,1,10.1,1.3c3.2,0.4,6.1,0.5,8.8,0.4c2.7-0.1,5-0.6,7.1-1.7
		c2.6-1.3,4.4-1,5.2,0.9c0.8,1.9,0.7,4.5-0.5,7.9c-1,3.3-2.8,6.6-5.5,9.7c-1.7,1.9-3.8,4-6.5,6.3s-5.3,4.5-7.8,6.6
		c-2.5,2.1-4.6,3.8-6.2,5.2c-1.6,1.4-2.2,2.1-1.9,2.1c2.1-0.2,4.3-0.1,6.4,0.3c2.1,0.4,4.3,0.8,6.4,1.3c2.1,0.4,4.2,0.7,6.2,0.8
		c2,0.1,3.8-0.2,5.5-1.1c1.2-0.6,2.4-1.5,3.5-2.8c1.1-1.3,2.2-2.6,3.2-4.1c1-1.5,2-3,2.9-4.6c0.9-1.5,1.6-2.9,2.2-3.9
		c1.2-2,2.4-3.4,3.7-4C508.6,69.6,510.4,69.2,512.8,69.2z"/>
</g>
</svg>
